# Blender 3.2.2
# www.blender.org
mtllib die.mtl
o Cube
v 1.000000 -0.834470 0.000000
v 0.834470 0.834470 -1.000000
v 0.834470 1.000000 -0.834470
v 1.000000 0.834470 -0.834470
v 0.834470 -1.000000 -0.834470
v 0.834470 -0.834470 -1.000000
v 1.000000 -0.834470 -0.834470
v 1.000000 0.834470 0.834470
v 0.834470 1.000000 0.834470
v 0.834470 0.834470 1.000000
v 1.000000 -0.834470 0.834470
v 0.834470 -0.834470 1.000000
v 0.834470 -1.000000 0.834470
v -0.834470 0.834470 -1.000000
v -1.000000 0.834470 -0.834470
v -0.834470 1.000000 -0.834470
v -1.000000 -0.834470 -0.834470
v -0.834470 -0.834470 -1.000000
v -0.834470 -1.000000 -0.834470
v -1.000000 0.834470 0.834470
v -0.834470 0.834470 1.000000
v -0.834470 1.000000 0.834470
v -0.834470 -1.000000 0.834470
v -0.834470 -0.834470 1.000000
v -1.000000 -0.834470 0.834470
vn -0.3416 -0.8756 -0.3416
vn 0.3416 -0.8756 -0.3416
vn 0.3416 -0.8756 0.3416
vn -0.3416 -0.8756 0.3416
vn -0.8756 -0.3416 0.3416
vn -0.8756 0.3416 0.3416
vn -0.8756 0.3416 -0.3416
vn -0.8756 -0.3416 -0.3416
vn 0.3416 -0.3416 0.8756
vn 0.3416 0.3416 0.8756
vn -0.3416 0.3416 0.8756
vn -0.3416 -0.3416 0.8756
vn 0.3416 0.8756 -0.3416
vn -0.3416 0.8756 -0.3416
vn -0.3416 0.8756 0.3416
vn 0.3416 0.8756 0.3416
vn 0.8756 -0.3416 -0.3416
vn 0.8756 0.3416 -0.3416
vn 0.8756 0.3416 0.3416
vn 0.8756 -0.3416 0.3416
vn 0.9239 -0.3827 -0.0000
vn 0.3416 0.3416 -0.8756
vn 0.3416 -0.3416 -0.8756
vn -0.3416 0.3416 -0.8756
vn -0.3416 -0.3416 -0.8756
vt 0.395691 0.625000
vt 0.604309 0.479309
vt 0.645691 0.520691
vt 0.625000 0.479309
vt 0.604309 0.500000
vt 0.604309 0.520691
vt 0.354309 0.520691
vt 0.354309 0.500000
vt 0.395691 0.479309
vt 0.375000 0.520691
vt 0.395691 0.520691
vt 0.604309 0.750000
vt 0.604309 0.729309
vt 0.625000 0.770691
vt 0.645691 0.729309
vt 0.604309 0.770691
vt 0.375000 0.729309
vt 0.395691 0.729309
vt 0.395691 0.770691
vt 0.354309 0.750000
vt 0.354309 0.729309
vt 0.604309 0.250000
vt 0.604309 0.270691
vt 0.604309 0.229309
vt 0.854309 0.520691
vt 0.625000 0.229309
vt 0.625000 0.270691
vt 0.125000 0.520691
vt 0.395691 0.229309
vt 0.145691 0.500000
vt 0.395691 0.270691
vt 0.145691 0.520691
vt 0.604309 0.020691
vt 0.604309 0.000000
vt 0.604309 0.979309
vt 0.854309 0.729309
vt 0.625000 0.979309
vt 0.625000 0.020691
vt 0.145691 0.729309
vt 0.395691 0.979309
vt 0.395691 0.000000
vt 0.145691 0.750000
vt 0.125000 0.729309
vt 0.395691 0.020691
s 1
usemtl Material.001
f 19/32/1 5/7/2 13/21/3 23/39/4
f 25/44/5 20/33/6 15/24/7 17/29/8
f 12/19/9 10/16/10 21/35/11 24/40/12
f 3/3/13 16/25/14 22/36/15 9/15/16
f 7/11/17 4/6/18 8/13/19 11/18/20 1/1/21
f 2/2/22 3/4/13 4/5/18
f 5/7/2 6/8/23 7/10/17
f 8/12/19 9/14/16 10/16/10
f 11/17/20 12/20/9 13/21/3
f 14/22/24 15/24/7 16/26/14
f 17/28/8 18/30/25 19/32/1
f 20/33/6 21/34/11 22/38/15
f 23/39/4 24/42/12 25/43/5
f 19/32/1 23/39/4 25/43/5 17/28/8
f 5/7/2 19/32/1 18/30/25 6/8/23
f 4/6/18 7/11/17 6/9/23 2/2/22
f 24/41/12 21/34/11 20/33/6 25/44/5
f 10/16/10 12/19/9 11/18/20 8/13/19
f 14/23/24 18/31/25 17/29/8 15/24/7
f 9/14/16 22/37/15 21/35/11 10/16/10
f 3/3/13 9/15/16 8/13/19 4/6/18
f 23/39/4 13/21/3 12/20/9 24/42/12
f 22/38/15 16/26/14 15/24/7 20/33/6
f 16/27/14 3/4/13 2/2/22 14/23/24
f 13/21/3 5/7/2 7/11/17 1/1/21 11/18/20
f 18/31/25 14/23/24 2/2/22 6/9/23
